<svg width="1700" height="1700" viewBox="0 0 1700 1700" fill="none" xmlns="http://www.w3.org/2000/svg">
<path d="M560.95 1412.7H635.04L882.41 932.82L1085.91 1412.7H1157.24L1580.02 439.97C1603.72 385.4 1649.92 352.63 1699.02 345.21V287.277H1357.16V345.23C1402.52 355.32 1450.67 372.32 1472.08 420.191L1161.64 1136.25C1105.52 1016.9 1047.98 886.481 993.06 756.331C1049.74 635.901 1096.04 524.041 1165.58 414.111C1206.24 349.431 1272.21 347.911 1306.21 344.731V287.281H942.81V344.731C988.15 344.776 1082.5 348.809 1040.43 437.221L935.04 658.811L823.41 412.321C806.031 373.941 839.79 348.371 894.9 345.324L894.495 287.331H485.515V344.781C534.243 346.382 602.945 346.121 628.305 387.436C706.395 530.886 758.605 679.896 829.795 826.156L645.575 1170.65L335.935 458.866C301.043 378.656 383.88 352.816 437.695 346.116L437.09 287.322H1.03003V344.772C61.24 364.68 138.91 454.252 160.59 499.582C323.48 840.282 405.5 1068.7 560.98 1412.76L560.95 1412.7Z" fill="white"/>
</svg>
